<svg xmlns="http://www.w3.org/2000/svg" viewBox="0 0 1740 1400" role="img" aria-label="Blue Sheep Films logo">
<path fill="#1a1ad9" d="
M690 20
C640 70 600 120 560 150
C548 120 545 95 548 70
C520 95 505 135 505 175
C470 150 430 135 385 140
C300 95 210 90 150 120
C95 145 60 170 45 130
C30 165 55 205 110 225
C170 250 240 250 300 255
C255 300 215 360 200 430
C160 460 120 500 100 560
C80 640 78 730 90 820
C70 880 55 960 60 1050
C64 1120 78 1200 105 1290
C120 1345 150 1385 195 1380
C240 1375 255 1320 250 1250
C246 1180 232 1110 235 1040
C255 1000 285 980 320 985
C360 990 395 1010 420 1055
C405 1120 400 1200 415 1280
C428 1335 470 1375 520 1360
C560 1348 565 1300 560 1240
C556 1170 545 1100 560 1040
C640 1010 730 995 810 990
C900 985 1000 990 1100 995
C1150 1000 1200 1010 1245 1050
C1230 1120 1225 1200 1240 1280
C1253 1335 1300 1375 1350 1360
C1390 1348 1395 1300 1390 1240
C1386 1170 1372 1110 1375 1050
C1420 1010 1480 1000 1540 1010
C1530 1090 1530 1180 1545 1270
C1558 1330 1610 1375 1665 1360
C1705 1348 1710 1290 1700 1220
C1690 1140 1665 1060 1650 980
C1690 900 1710 800 1710 700
C1710 560 1690 420 1650 320
C1620 250 1560 200 1490 195
C1420 190 1350 210 1290 205
C1180 195 1070 175 960 165
C880 158 800 155 720 165
C700 120 700 70 690 20 Z"/>
</svg>
